# xmcd
#
# Track frame offsets: 
#        150
#        24669
#        72318
#        91814
#        115574
#        134862
#        144034
#
# Disc length: 2287 seconds
#
# Revision: 1
# Processed by: cddbd v1.5.2PL0 Copyright (c) Steve Scherf et al.
# Submitted via: ExactAudioCopyFreeDBPlugin 1.0
#
DISCID=5a08ed07
DTITLE=Gary Bartz NTU Troop - Taifa
DYEAR=1971
DGENRE=Jazz
TTITLE0=Rise
TTITLE1=People Dance
TTITLE2=Du (Rain)
TTITLE3=Drinking Song
TTITLE4=Taifa
TTITLE5=Parted
TTITLE6=The Warrior's Song
EXTD=YEAR: 1970
EXTT0=
EXTT1=
EXTT2=
EXTT3=
EXTT4=
EXTT5=
EXTT6=
PLAYORDER=
